# xmcd
#
# Track frame offsets: 
#        150
#        6872
#        23206
#        41168
#        65876
#        93050
#        117848
#        136049
#        156174
#        186663
#        206600
#        228647
#        247675
#        258882
#        276478
#
# Disc length: 3972 seconds
#
# Revision: 0
# Processed by: cddbd v1.5.2PL0 Copyright (c) Steve Scherf et al.
# Submitted via: ExactAudioCopy v0.99pb5
#
DISCID=d10f820f
DTITLE=The Notting Hillbillies - Live at the Hexagon Theatre 1990 - 1C
DTITLE=D
DYEAR=1990
DGENRE=Blues
TTITLE0=Down the road apiece 
TTITLE1=One way gal
TTITLE2=Never to return
TTITLE3=When it comes to you
TTITLE4=Running on down this road
TTITLE5=Your own sweet way
TTITLE6=Run me down
TTITLE7=Please baby
TTITLE8=Water of love
TTITLE9=Hobo's lullaby
TTITLE10=When you've got a good friend
TTITLE11=Steelrail blues
TTITLE12=One woman man
TTITLE13=That's alright mama
TTITLE14=Blues stay away from me
EXTD=
EXTT0=Down the road apiece
EXTT1=
EXTT2=
EXTT3=
EXTT4=
EXTT5=
EXTT6=
EXTT7=
EXTT8=
EXTT9=
EXTT10=
EXTT11=
EXTT12=
EXTT13=
EXTT14=
PLAYORDER=
